#!OML:ASF E:/inclinewalkrobotboard/Project1/Captureday1/Session1/subject1.ASF
:FULLY-SPECIFIED
:DEGREES
313
root 0 0 0 -1.906100903838789 -0.7974976326605538 2.531730190606798
lowerback 10.470649235674996 -1.0695320876765786 -4.200124248688974
upperback 0.5904245453203373 -1.842050159645163 1.2550013321805014
thorax -5.162281893310256 -0.799293052642126 3.9280753901660708
lowerneck -16.74853101005709 -2.3770540568944654 -2.0687272301454738
upperneck 19.2723566434715 -2.6942348322002965 -0.14340641085589523
head 8.798041090349379 -1.4245683979114503 -0.049433133522968076
rclavicle -6.359026959753316E-17 -8.845636903137845E-17
rhumerus -34.63101614527143 -22.369104548742936 -78.39998723313346
rradius 20.190664911400006
rwrist 6.713139757592839
rhand -18.09600369167309 25.39675554701256
rfingers 7.125020000000026
rthumb 8.173862771148062 -4.442474357163647
lclavicle -4.125219230616083E-17 -8.612919736356284E-16
lhumerus -27.826467724522054 -2.0288173629449053 79.94705720615862
lradius 30.83843464312491
lwrist 7.116572421680605
lhand -27.808184676392948 26.067498653773388
lfingers 7.125020000000001
lthumb -1.2194530009533153 56.07341457734627
rfemur -34.82456108076625 1.7396077982280842 17.745428633011926
rtibia 41.16572187830626
rfoot -7.8157391336620385 -10.69466921283819
rtoes -0.8471077609553304
lfemur 6.846281164810871 -2.8738574399472947 -29.006225312464114
ltibia 19.939485753331457
lfoot -18.42631957625612 0.42225871969000606
ltoes -1.6327667674657604
314
root 0 0 0 -1.3756841392286088 -0.09627984125486133 2.747294707107804
lowerback 10.594547964041206 -1.2646783478556696 -4.574081109578909
upperback 0.6084253697907088 -2.1252670593526988 1.392453029392062
thorax -5.1556588472894 -0.9325113014584039 4.310271213725744
lowerneck -17.289201492512653 -2.4954893010320327 -2.1979970614868227
upperneck 19.461629870308524 -2.830328758641815 -0.19314291114807847
head 8.977887608244774 -1.496054663993299 -0.07451726808313702
rclavicle 1.2725439931842235E-16 4.217914085375302E-16
rhumerus -34.904293631354356 -22.84864277649485 -78.02571938259034
rradius 20.157030126219873
rwrist 6.20313624622528
rhand -18.16156420128163 25.098976870404165
rfingers 7.125020000000027
rthumb 8.11145779268369 -4.746693250896641
lclavicle -1.9875808008511834E-16 -3.186107771567485E-16
lhumerus -26.658429682132308 -3.110107688701771 80.28191091556515
lradius 31.676965116420874
lwrist 7.422893208852665
lhand -27.828882400126616 26.089120082140774
lfingers 7.1250199999999975
lthumb -1.2435825820950397 56.099212037077784
rfemur -34.91600236525359 4.66883040302092 19.70076334521871
rtibia 28.61237526134579
rfoot -9.748015217725236 -12.59475304130346
rtoes -1.8538401491158536
lfemur 8.274443976950675 -2.936260686464878 -28.82170851081331
ltibia 19.70908642139346
lfoot -17.202821583907518 -0.6248634501255119
ltoes -2.5108916446278826
315
root 0 0 0 -1.307831997365859 0.28625370889483115 2.5092175276060407
lowerback 10.593130749605928 -1.3736810545802927 -4.431481797987751
upperback 0.563958770577296 -2.2395595927476766 1.5292033739302662
thorax -5.181153304714981 -0.9933809601943133 4.387253651208639
lowerneck -17.65113772901894 -2.5300251007648127 -2.249612926626112
upperneck 19.537838921865234 -2.8878891116287733 -0.19021748032453845
head 9.077616892202887 -1.517322814973853 -0.07877900643341862
rclavicle -6.992359870204118E-16 6.830674762274324E-16
rhumerus -35.21192305805555 -23.41417970456395 -77.72307368945249
rradius 19.642860896782196
rwrist 6.385203822544471
rhand -18.11176940135019 25.077755854573397
rfingers 7.125020000000026
rthumb 8.159439853482656 -4.75745236798441
lclavicle -1.2078690217089652E-15 -1.9850286143921346E-17
lhumerus -26.4927261664565 -3.3778100315665345 80.46395184016968
lradius 31.822338038054287
lwrist 7.489208458218993
lhand -27.839868903696633 25.977054704256375
lfingers 7.125019999999995
lthumb -1.2554463420152597 55.985876752349725
rfemur -33.72315090722488 5.686426856835881 20.32386645031829
rtibia 24.166606354249605
rfoot -9.885031038492622 -12.634659277391282
rtoes -2.6244210163676716
lfemur 10.692256579330255 -3.25355441224369 -28.487790215328083
ltibia 19.653847761184487
lfoot -14.928720451208958 -2.5177547613256785
ltoes -4.100768653667789
316
root 0 0 0 -1.4233726240210252 0.6313014422920662 1.636464531242812
lowerback 10.378848010406934 -1.499370347200533 -3.744903259481336
upperback 0.3883378391275385 -2.307397533117846 1.7967336750755605
thorax -5.242990601668594 -1.0422330757961573 4.295153165290401
lowerneck -18.050045465002295 -2.467542194788292 -2.2055532998328173
upperneck 19.996449385513074 -2.844564874678842 -0.2581606887831156
head 9.311316313703966 -1.4809908610226556 -0.11140866266906557
rclavicle -1.1327055820795648E-15 4.413834108864113E-16
rhumerus -35.565103957975495 -23.99726312473266 -77.46260533864164
rradius 18.992818810589036
rwrist 6.970320735220503
rhand -18.023525938074478 25.139341209811896
rfingers 7.125020000000024
rthumb 8.244188723196626 -4.684219276186184
lclavicle -1.990414084667114E-15 -2.4283613732642084E-16
lhumerus -26.80545873467171 -3.293455603857703 80.5866141437379
lradius 31.715681975093762
lwrist 7.493729860025288
lhand -27.83110649299627 25.920547635612433
lfingers 7.125019999999996
lthumb -1.2464181976512876 55.92720592676018
rfemur -31.254194979127266 5.983046413361388 20.824590816348113
rtibia 22.916859206634815
rfoot -9.358085160498941 -11.244757109410196
rtoes -1.4243836246616783
lfemur 13.095680899647302 -3.5514850207255497 -28.06639509948228
ltibia 20.63937712138183
lfoot -12.018352922040876 -4.897892196169652
ltoes -6.098491538614702
